:SAMPLES-PER-SECOND 30
:FULLY-SPECIFIED
:DEGREES
2157
root  6.5287 33.9929 2.47161 -142.245 86.4482 -149.318
RightUpLeg  -49.771 -26.9745 1.75889
RightLeg  60.4713 -4.62391 -9.29513
RightFoot  -13.7552 -0.0772121 0.773131
RightToes  0.000481921 0.542163 -0.142578
Spine  53.2831 -2.99862 7.58797
Spine1  -11.0183 -0.175219 2.18502
HEad  -29.907 2.12758 1.61419
LeftShoulder1  9.34234 -15.4148 -42.9286
LeftArm  5.68509 -8.07753 -40.3314
LeftForeArm  -176.311 -64.4492 -160.849
LeftHand  -0.25398 0.0180481 5.50724
RightShoulder  5.05572 10.8701 29.1906
RightArm  3.02905 7.21469 43.8323
RightForeArm  161.444 67.6161 155.296
RightHand  -1.52385 4.1345 -18.7544
LeftUpLeg  -49.5224 26.8543 9.45566
LeftLeg  54.6335 3.17344 5.29704
LeftFoot  -6.65016 0.415472 -9.12742
LeftToes  1.06245e-005 4.65868e-005 -8.65517e-006
2158
root  6.51769 34.1028 1.72963 -139.943 86.1733 -146.933
RightUpLeg  -48.8432 -27.0686 0.436651
RightLeg  59.2103 -4.79427 -9.12746
RightFoot  -12.4278 -0.0666325 1.82586
RightToes  0.000481921 0.542163 -0.142578
Spine  53.0598 -2.92281 7.23394
Spine1  -10.7686 -0.166089 1.86685
HEad  -29.8151 1.93521 1.45326
LeftShoulder1  9.33767 -15.3855 -42.9766
LeftArm  5.50338 -8.07961 -40.2063
LeftForeArm  -176.419 -64.622 -160.695
LeftHand  -0.25398 0.0180481 5.50724
RightShoulder  5.03281 10.8247 29.1413
RightArm  2.68047 7.13608 43.9834
RightForeArm  161.693 67.5118 155.446
RightHand  -1.53385 4.20985 -18.7321
LeftUpLeg  -49.7646 26.851 8.17372
LeftLeg  55.1046 3.1385 5.33643
LeftFoot  -8.07067 0.264764 -7.62315
LeftToes  1.06245e-005 4.65868e-005 -8.65517e-006
2159
root  6.53044 34.2394 0.940253 -133.725 85.9968 -140.678
RightUpLeg  -47.7395 -26.7641 -0.827916
RightLeg  57.5413 -4.83512 -8.60853
RightFoot  -10.9214 -0.0842171 2.71702
RightToes  0.000481921 0.542163 -0.142578
Spine  52.7224 -2.74572 6.98148
Spine1  -10.5372 0.00888136 1.46121
HEad  -29.8268 1.8235 1.24248
LeftShoulder1  9.32478 -15.3658 -42.9612
LeftArm  5.21571 -7.64319 -40.2345
LeftForeArm  -176.466 -64.5458 -160.754
LeftHand  -0.25398 0.0180481 5.50724
RightShoulder  5.03244 10.7903 29.225
RightArm  2.54433 6.86558 44.0614
RightForeArm  161.799 67.3442 155.65
RightHand  -1.57548 4.3706 -18.9224
LeftUpLeg  -49.7223 26.949 7.17466
LeftLeg  55.3038 3.21364 5.49324
LeftFoot  -8.88694 0.202927 -6.99622
LeftToes  1.06245e-005 4.65868e-005 -8.65517e-006
2160
root  6.55898 34.4004 0.158226 -128.135 85.9991 -135.038
RightUpLeg  -46.4616 -26.1347 -2.34374
RightLeg  55.6611 -4.88746 -8.08234
RightFoot  -9.3841 -0.131958 3.94691
RightToes  0.000481921 0.542163 -0.142578
Spine  52.2954 -2.28667 6.3716
Spine1  -10.5017 0.271945 1.31662
HEad  -29.8531 1.79662 1.06964
LeftShoulder1  9.31125 -15.3464 -42.9421
LeftArm  4.92626 -7.12164 -40.2145
LeftForeArm  -176.498 -64.3559 -160.908
LeftHand  -0.25398 0.0180481 5.50724
RightShoulder  5.06635 10.7984 29.4468
RightArm  2.54432 6.54876 44.0336
RightForeArm  162.183 67.1502 155.913
RightHand  -1.59763 4.45958 -19.0148
LeftUpLeg  -49.5847 27.2764 6.01717
LeftLeg  55.6102 3.25341 5.6192
LeftFoot  -9.80238 0.144873 -6.37469
LeftToes  1.06245e-005 4.65868e-005 -8.65517e-006
2161
root  6.58094 34.6119 -0.633438 -128.112 85.8619 -134.875
RightUpLeg  -44.8201 -25.8515 -4.03344
RightLeg  53.5286 -5.35368 -8.12089
RightFoot  -7.82729 -0.214959 5.27638
RightToes  0.000481921 0.542163 -0.142578
Spine  51.9236 -2.02388 5.88426
Spine1  -10.5378 0.389665 1.16996
HEad  -29.93 1.69504 0.983786
LeftShoulder1  9.29105 -15.3024 -42.9498
LeftArm  4.82281 -6.94189 -39.9489
LeftForeArm  -176.556 -64.2979 -160.95
LeftHand  -0.25398 0.0180481 5.50724
RightShoulder  5.10944 10.8053 29.7364
RightArm  2.5146 6.11957 44.1338
RightForeArm  162.997 66.9936 156.181
RightHand  -1.57042 4.39891 -18.8115
LeftUpLeg  -49.1447 27.2445 4.64051
LeftLeg  55.4397 3.2862 5.63597
LeftFoot  -10.9144 0.0858989 -5.53438
LeftToes  1.06245e-005 4.65868e-005 -8.65517e-006
2162
root  6.58534 34.871 -1.45451 -130.971 85.4284 -137.603
RightUpLeg  -42.9205 -25.4945 -5.67356
RightLeg  51.0673 -6.07973 -8.37852
RightFoot  -6.34721 -0.292467 5.73699
RightToes  0.000481921 0.542163 -0.142578
Spine  51.7039 -2.24021 6.11268
Spine1  -10.6555 0.376669 0.669402
HEad  -30.0941 1.44351 0.908974
LeftShoulder1  9.23729 -15.2324 -42.8552
LeftArm  4.84111 -6.95584 -39.5665
LeftForeArm  -176.613 -64.3117 -160.933
LeftHand  -0.25398 0.0180481 5.50724
RightShoulder  5.1455 10.7778 30.0635
RightArm  2.47298 5.41895 44.4911
RightForeArm  163.87 66.8607 156.427
RightHand  -1.53269 4.31323 -18.5298
LeftUpLeg  -48.4284 26.6972 3.34789
LeftLeg  54.6101 3.4552 5.71978
LeftFoot  -11.7079 0.0540639 -4.92411
LeftToes  1.06245e-005 4.65868e-005 -8.65517e-006
2163
root  6.58398 35.1319 -2.24674 -130.846 85.2483 -137.66
RightUpLeg  -41.5385 -23.7966 -7.28878
RightLeg  48.5814 -6.20129 -7.82837
RightFoot  -5.43018 -0.308846 5.26259
RightToes  0.000481921 0.542163 -0.142578
Spine  51.4348 -2.43445 6.53152
Spine1  -11.0179 0.489625 -0.0984207
HEad  -30.3717 1.19771 0.666523
LeftShoulder1  9.14113 -15.1531 -42.572
LeftArm  4.63776 -6.7582 -39.239
LeftForeArm  -176.638 -64.0864 -161.113
LeftHand  -0.25398 0.0180481 5.50724
RightShoulder  5.19488 10.7749 30.4219
RightArm  2.60872 4.62506 45.01
RightForeArm  164.466 66.6948 156.673
RightHand  -1.53158 4.35521 -18.4409
LeftUpLeg  -47.913 26.2651 1.99873
LeftLeg  53.6378 3.79282 6.01003
LeftFoot  -12.2001 0.0387297 -4.58207
LeftToes  1.06245e-005 4.65868e-005 -8.65517e-006
2164
root  6.58234 35.3638 -2.9458 -127.496 85.6745 -134.807
RightUpLeg  -41.1851 -21.0536 -8.59583
RightLeg  46.6932 -5.57325 -6.62269
RightFoot  -5.67509 -0.261519 4.48968
RightToes  0.000481921 0.542163 -0.142578
Spine  51.0868 -2.21795 6.46319
Spine1  -11.488 0.773242 -0.713499
HEad  -30.8339 1.12905 0.212638
LeftShoulder1  9.03695 -15.0797 -42.2316
LeftArm  3.9772 -6.39774 -38.9004
LeftForeArm  -176.691 -63.6133 -161.484
LeftHand  -0.25398 0.0180481 5.50724
RightShoulder  5.27404 10.8654 30.7475
RightArm  3.02828 4.22959 45.5615
RightForeArm  164.768 66.536 156.875
RightHand  -1.5564 4.46828 -18.5255
LeftUpLeg  -47.7319 26.2755 0.39336
LeftLeg  52.7631 4.18964 6.37934
LeftFoot  -12.7387 0.0252863 -4.19249
LeftToes  1.06245e-005 4.65868e-005 -8.65517e-006
2165
root  6.56569 35.5756 -3.57054 -125.647 86.1189 -133.364
RightUpLeg  -41.4945 -19.4063 -8.81547
RightLeg  46.0627 -5.46415 -6.36202
RightFoot  -7.03002 -0.178571 3.43493
RightToes  0.000481921 0.542163 -0.142578
Spine  50.9095 -2.03924 6.3472
Spine1  -11.634 0.917295 -0.867873
HEad  -31.4377 1.18146 -0.190277
LeftShoulder1  8.97501 -15.0374 -42.024
LeftArm  3.04579 -6.29585 -38.478
LeftForeArm  -176.888 -63.3215 -161.691
LeftHand  -0.25398 0.0180481 5.50724
RightShoulder  5.35652 11.009 30.9547
RightArm  3.58549 4.42605 46.0611
RightForeArm  164.87 66.4978 156.927
RightHand  -1.5661 4.48319 -18.6103
LeftUpLeg  -47.45 26.1664 -1.15774
LeftLeg  51.7556 4.56561 6.66045
LeftFoot  -13.2389 0.0166966 -3.77572
LeftToes  1.06245e-005 4.65868e-005 -8.65517e-006
2166
root  6.52589 35.7729 -4.14251 -128.369 86.2239 -136.25
RightUpLeg  -42.2368 -19.9167 -7.52252
RightLeg  47.1088 -6.54603 -7.83181
RightFoot  -8.86057 -0.110857 2.36878
RightToes  0.000481921 0.542163 -0.142578
Spine  50.872 -2.16353 6.63899
Spine1  -11.3286 0.850441 -0.702287
HEad  -31.9325 1.19701 -0.226906
LeftShoulder1  8.97199 -15.0467 -41.986
LeftArm  2.27158 -6.62061 -38.103
LeftForeArm  -177.249 -63.4818 -161.532
LeftHand  -0.25398 0.0180481 5.50724
RightShoulder  5.40242 11.1041 31.0291
RightArm  4.01766 4.86906 46.4158
RightForeArm  164.864 66.6226 156.796
RightHand  -1.54804 4.38027 -18.5867
LeftUpLeg  -46.9121 25.7256 -2.43378
LeftLeg  50.5817 4.89232 6.8116
LeftFoot  -13.4823 0.0143284 -3.5538
LeftToes  1.06245e-005 4.65868e-005 -8.65517e-006
2167
root  6.48793 35.9532 -4.62107 -129.871 86.4697 -137.8
RightUpLeg  -43.4426 -21.5424 -4.98613
RightLeg  49.3207 -7.47349 -9.55645
RightFoot  -10.5792 -0.085988 2.43813
RightToes  0.000481921 0.542163 -0.142578
Spine  50.7946 -2.13031 6.88253
Spine1  -10.8606 0.938094 -0.634564
HEad  -32.1443 1.16809 0.060176
LeftShoulder1  9.00482 -15.0804 -42.0688
LeftArm  1.88613 -7.11189 -37.906
LeftForeArm  -177.64 -63.8127 -161.235
LeftHand  -0.25398 0.0180481 5.50724
RightShoulder  5.40919 11.1259 31.02
RightArm  4.22597 5.1864 46.5679
RightForeArm  164.854 66.8632 156.539
RightHand  -1.52043 4.28498 -18.4372
LeftUpLeg  -46.2866 25.7008 -3.57381
LeftLeg  49.4626 5.09599 6.80373
LeftFoot  -13.6307 0.012374 -3.46912
LeftToes  1.06245e-005 4.65868e-005 -8.65517e-006
2168
root  6.48471 36.1404 -4.99084 -125.723 87.0546 -133.534
RightUpLeg  -44.3076 -23.2778 -1.39462
RightLeg  50.8649 -7.18043 -9.71986
RightFoot  -11.8542 -0.066397 3.24983
RightToes  0.000481921 0.542163 -0.142578
Spine  50.8346 -1.80376 6.8657
Spine1  -10.4132 1.2787 -0.755818
HEad  -32.1705 1.17748 0.317817
LeftShoulder1  9.045 -15.092 -42.2417
LeftArm  1.81541 -7.41211 -37.873
LeftForeArm  -177.825 -63.9121 -161.137
LeftHand  -0.25398 0.0180481 5.50724
RightShoulder  5.4084 11.1359 30.989
RightArm  4.30816 5.32333 46.5479
RightForeArm  164.889 67.1375 156.246
RightHand  -1.49634 4.2525 -18.2131
LeftUpLeg  -45.4402 26.3601 -4.50475
LeftLeg  48.3524 5.17595 6.64453
LeftFoot  -13.811 0.0108388 -3.33707
LeftToes  1.06245e-005 4.65868e-005 -8.65517e-006
2169
root  6.52072 36.3231 -5.27234 -125.372 87.6775 -133.337
RightUpLeg  -44.5432 -25.0354 2.68886
RightLeg  50.3368 -6.61387 -8.84343
RightFoot  -12.6811 -0.0615971 2.23344
RightToes  0.000481921 0.542163 -0.142578
Spine  50.5789 -1.40367 6.62985
Spine1  -9.88663 1.47584 -0.542448
HEad  -32.1333 1.18782 0.32628
LeftShoulder1  9.08648 -15.0927 -42.4473
LeftArm  1.95003 -7.37049 -37.9776
LeftForeArm  -177.682 -63.7669 -161.267
LeftHand  -0.25398 0.0180481 5.50724
RightShoulder  5.41841 11.1632 30.9883
RightArm  4.33674 5.27196 46.4171
RightForeArm  164.907 67.3258 156.041
RightHand  -1.48399 4.25513 -18.0634
LeftUpLeg  -44.8029 26.835 -5.59362
LeftLeg  47.0658 5.29346 6.49264
LeftFoot  -13.7464 0.0162234 -3.15131
LeftToes  1.06245e-005 4.65868e-005 -8.65517e-006
